<svg xmlns="http://www.w3.org/2000/svg" 
width="80" 
height="71" id="network"><path 
fill="#13678a" 
fill-rule="evenodd" 
d="M184 294.466a6 6 0 0 0-5.64 4.015h-12.02a.68.68 0 0 0-.2.02l-6.32-10.979a1.148 1.148 0 0 0 .14-.181l6.06-10.417a5.193 5.193 0 0 0 1.12.12 6.024 6.024 0 0 0 3.02-11.22 5.939 5.939 0 0 0-3.02-.822 6 6 0 0 0-5.18 2.99 6.06 6.06 0 0 0 .6 6.925l-6.06 10.417a.227.227 0 0 0-.06.16h-12.88a.523.523 0 0 0-.06-.16l-6.04-10.417a6.364 6.364 0 0 0 1.22-2.369 6.018 6.018 0 0 0-5.82-7.548 5.939 5.939 0 0 0-3.02.822 6.023 6.023 0 0 0 3.04 11.22 5.011 5.011 0 0 0 1.1-.12l6.06 10.417a.518.518 0 0 0 .16.2l-6.32 10.961a.75.75 0 0 0-.22-.02h-12a6.021 6.021 0 1 0 0 4.014h12a.75.75 0 0 0 .22-.02l6.32 10.959a.5.5 0 0 0-.16.2l-6.06 10.437a5.011 5.011 0 0 0-1.1-.121 6.025 6.025 0 0 0-3.04 11.221 5.939 5.939 0 0 0 3.02.822 6.026 6.026 0 0 0 5.82-7.567 5.9 5.9 0 0 0-1.24-2.348l6.06-10.417a.519.519 0 0 0 .06-.161h12.88a.519.519 0 0 0 .06.161l6.06 10.417a5.624 5.624 0 0 0-1.22 2.348 5.91 5.91 0 0 0 .62 4.577 6 6 0 0 0 5.18 2.99 5.939 5.939 0 0 0 3.02-.822 6.024 6.024 0 0 0-3.02-11.221 5.194 5.194 0 0 0-1.12.121l-6.06-10.437a1.1 1.1 0 0 0-.14-.181l6.32-10.979a.68.68 0 0 0 .2.02h12.02a6 6 0 1 0 5.64-8.027zm-18.6-24.447a2.006 2.006 0 0 1 1.74-1 2.012 2.012 0 0 1 1.72 3.011 2.047 2.047 0 0 1-2.74.722 2.02 2.02 0 0 1-.72-2.733zm-31.52 2.73a2.047 2.047 0 0 1-2.74-.722 2.012 2.012 0 0 1 1.72-3.011 2 2 0 0 1 1.02 3.733zM116 302.5a2.007 2.007 0 1 1 2-2.007 2.009 2.009 0 0 1-2 2.007zm18.6 28.481a2.046 2.046 0 0 1-2.74.723 2.008 2.008 0 0 1-.72-2.75 2.03 2.03 0 0 1 1.74-.983 1.988 1.988 0 0 1 1.72 3.005zm31.52-2.749a2.036 2.036 0 0 1 2.74.722 2.008 2.008 0 0 1-.72 2.75 1.924 1.924 0 0 1-1 .281 2 2 0 0 1-1.74-1 2.043 2.043 0 0 1 .72-2.758zm-9.78-16.74h-12.66l-6.32-11 6.32-10.979h12.66l6.32 10.979zM184 302.5a2.007 2.007 0 1 1 2-2.007 2.009 2.009 0 0 1-2 2.007z" transform="translate(-110 -265)"></path></svg>